<svg width="130" height="35" viewBox="0 0 130 35" fill="none" xmlns="http://www.w3.org/2000/svg">
<path fill-rule="evenodd" clip-rule="evenodd" d="M118.522 24.951L117.834 25.6395C117.562 25.9112 117.122 25.9112 116.85 25.6395C116.579 25.3678 116.579 24.9276 116.85 24.6561L117.539 23.9673C117.81 23.6958 118.25 23.6958 118.522 23.9673C118.794 24.239 118.794 24.6795 118.522 24.951Z" fill="#DB3C2C"/>
<path fill-rule="evenodd" clip-rule="evenodd" d="M114.097 24.459C113.825 24.1875 113.384 24.1875 113.113 24.459L112.424 25.1476C112.153 25.4193 112.153 25.8597 112.424 26.1312C112.696 26.4027 113.136 26.4027 113.408 26.1312L114.097 25.4429C114.368 25.1712 114.368 24.7307 114.097 24.459Z" fill="#DB3C2C"/>
<path fill-rule="evenodd" clip-rule="evenodd" d="M122.675 20.7959C122.701 20.7714 122.726 20.7467 122.752 20.7214C124.11 19.3635 124.11 17.1618 122.752 15.8037C121.394 14.4456 119.192 14.4456 117.834 15.8037C117.788 15.8496 117.743 15.8969 117.7 15.9448C117.679 15.9621 117.657 15.9803 117.637 16.0002L113.899 19.7379C113.628 20.0096 113.628 20.4499 113.899 20.7214C114.171 20.9931 114.611 20.9931 114.883 20.7214L116.457 19.1477C116.727 18.8771 117.17 18.8771 117.44 19.1477C117.711 19.4181 117.711 19.861 117.44 20.1314L117.391 20.1806L114.588 22.9836C114.316 23.2551 114.316 23.6956 114.588 23.9671C114.86 24.2388 115.3 24.2388 115.572 23.9671L118.424 21.1149C118.694 20.8445 119.137 20.8445 119.408 21.1149C119.678 21.3855 119.678 21.8279 119.408 22.0985L119.014 22.492C118.743 22.7635 118.743 23.2037 119.014 23.4754C119.286 23.7471 119.726 23.7471 119.998 23.4754L122.653 20.8198C122.661 20.8122 122.668 20.8039 122.675 20.7959Z" fill="#DB3C2C"/>
<path fill-rule="evenodd" clip-rule="evenodd" d="M0 3.8493C0 1.71492 1.71513 0 3.84974 0C5.98369 0 7.69904 1.71492 7.69904 3.8493C7.69904 5.98369 5.98369 7.69882 3.84974 7.69882C1.71513 7.69882 0 5.98369 0 3.8493Z" fill="#FFFFFE"/>
<path fill-rule="evenodd" clip-rule="evenodd" d="M127.171 11.3838C123.399 7.61165 117.283 7.61165 113.51 11.3838C110.983 13.9117 110.151 17.4912 111.011 20.7135L116.913 14.8119L116.913 14.8121C116.917 14.8078 116.921 14.8033 116.925 14.7989C118.811 12.9128 121.869 12.9128 123.756 14.7989C125.642 16.6852 125.642 19.7433 123.756 21.6293C123.751 21.6339 123.747 21.6376 123.743 21.6419L123.743 21.6423L117.841 27.5437C121.064 28.4034 124.643 27.5723 127.171 25.0444C130.943 21.2723 130.943 15.1562 127.171 11.3838Z" fill="#FFFFFE"/>
<path fill-rule="evenodd" clip-rule="evenodd" d="M1.2268 9.03271H1.16895C1.18845 9.03271 1.20773 9.03423 1.2268 9.03553V9.03271Z" fill="#FFFFFE"/>
<path fill-rule="evenodd" clip-rule="evenodd" d="M102.601 15.093C100.772 14.8263 100.238 14.75 100.238 14.2547C100.238 13.8353 100.962 13.4923 101.953 13.4923C103.615 13.4923 105.276 14.071 106.47 14.7769C106.976 15.0178 107.58 14.867 107.914 14.4246L109.345 11.8879C109.618 11.3778 109.471 10.7512 109.016 10.4128C107.026 9.29697 104.6 8.57568 101.915 8.57568C96.579 8.57568 93.6824 11.5486 93.6824 14.8644C93.6824 20.0098 98.4465 20.6577 101.534 21.0769C103.02 21.2672 104.125 21.4201 104.125 21.9915C104.125 22.4491 103.706 22.7921 102.296 22.7921C100.588 22.7921 98.1466 21.9785 96.5372 21.0481C96.0304 20.8148 95.4294 20.971 95.0994 21.4167L93.3847 24.2981C93.1741 24.7882 93.3279 25.3604 93.7532 25.68C95.828 26.9989 98.9925 27.8991 101.953 27.8991C102.658 27.8991 103.327 27.8534 103.957 27.7678L110.664 21.0611C110.351 16.2275 105.586 15.5352 102.601 15.093Z" fill="#FFFFFE"/>
<path fill-rule="evenodd" clip-rule="evenodd" d="M92.1196 26.2852V3.19695C92.1185 2.55345 91.6017 2.03172 90.9606 2.02089V2.02002H86.4184C85.7784 2.02002 85.2597 2.5385 85.2595 3.17875V26.2627C85.2595 26.9072 85.7764 27.4301 86.4184 27.4407V27.4418H90.9606C91.6 27.4418 92.1183 26.9241 92.1196 26.2852Z" fill="#FFFFFE"/>
<path fill-rule="evenodd" clip-rule="evenodd" d="M82.8965 10.3958V10.2118C82.8963 9.56723 82.3794 9.04463 81.7374 9.0338V9.03271H77.1954C76.556 9.03271 76.0375 9.55012 76.0362 10.1893V20.3906C75.4644 21.0384 74.6638 21.8388 73.1396 21.8388C71.4626 21.8388 70.4716 21.1145 70.4716 19.247V10.2118C70.4716 9.56723 69.9544 9.04463 69.3124 9.0338V9.03271H64.7702C64.1304 9.03271 63.6117 9.5512 63.611 10.1908V22.1818C63.611 25.3451 65.4408 27.8988 69.7093 27.8988C72.9489 27.8988 74.9689 26.565 76.0362 25.3835V26.2679C76.0375 26.9008 76.5382 27.4149 77.1648 27.4416H81.7974C82.4093 27.41 82.8963 26.9056 82.8965 26.2859V10.3958Z" fill="#FFFFFE"/>
<mask id="mask0" style="mask-type:alpha" maskUnits="userSpaceOnUse" x="9" y="8" width="54" height="27">
<path d="M9.64276 8.57568H62.506V34.4546H9.64276V8.57568Z" fill="white"/>
</mask>
<g mask="url(#mask0)">
<path fill-rule="evenodd" clip-rule="evenodd" d="M40.019 26.2836V14.1022C40.019 10.2906 37.7325 8.57568 34.3404 8.57568C31.3675 8.57568 28.9662 10.2146 27.8991 11.8153C27.0606 9.52858 25.1929 8.57568 22.6014 8.57568C19.6285 8.57568 17.3037 10.1004 16.5033 11.1293V10.2122C16.5031 9.56758 15.9859 9.04498 15.3439 9.03415V9.03307H10.8017C10.1623 9.03307 9.64406 9.5509 9.64276 10.1901V26.2644C9.64384 26.9081 10.1604 27.4303 10.8017 27.4409V27.4419H15.3439C15.9839 27.4419 16.5029 26.923 16.5033 26.2832V16.0841C16.9607 15.5504 17.7992 14.6356 19.2855 14.6356C20.8483 14.6356 21.3818 15.5885 21.3818 16.6938V26.2644C21.3829 26.9081 21.8994 27.4303 22.5409 27.4409V27.4419H27.0829C27.723 27.4419 28.2417 26.9233 28.2421 26.2834V16.0841C28.6997 15.5504 29.538 14.6356 31.0624 14.6356C32.5871 14.6356 33.1589 15.5885 33.1589 16.6938V26.2644C33.1596 26.9079 33.6763 27.4303 34.3179 27.4409V27.4419H38.8601C39.4999 27.4419 40.0186 26.9233 40.019 26.2836Z" fill="#FFFFFE"/>
<path fill-rule="evenodd" clip-rule="evenodd" d="M52.0632 21.8397C51.1865 21.8397 49.8525 21.3441 49.2428 20.5819V15.8941C49.8906 15.0935 51.1865 14.6361 52.0632 14.6361C53.8925 14.6361 55.4932 15.9322 55.4932 18.2187C55.4932 20.5438 53.8925 21.8397 52.0632 21.8397ZM54.4263 8.57617C52.5205 8.57617 50.7291 9.22401 49.2428 10.9773V10.2124C49.2424 9.56807 48.7254 9.04547 48.0836 9.03464V9.03356H43.5414C42.9016 9.03356 42.3825 9.55226 42.3823 10.1921V33.2762C42.3823 33.9208 42.8994 34.4434 43.5414 34.4542V34.4553H48.0836C48.7235 34.4553 49.2422 33.9368 49.2428 33.297V25.4985C50.7673 27.252 52.5205 27.8998 54.4263 27.8998C59 27.8998 62.5061 24.5454 62.5061 18.2187C62.5061 11.93 59 8.57617 54.4263 8.57617Z" fill="#FFFFFE"/>
</g>
<path fill-rule="evenodd" clip-rule="evenodd" d="M7.27957 26.2831V10.2116C7.27957 9.56723 6.76239 9.04463 6.12062 9.0338V9.03271H1.57842C0.938384 9.03271 0.419684 9.55142 0.41925 10.191V26.2627C0.419467 26.9071 0.936651 27.4299 1.57842 27.4405V27.4416H6.12062C6.76044 27.4416 7.27936 26.9229 7.27957 26.2831Z" fill="#FFFFFE"/>
</svg>